# xmcd
#
# Track frame offsets:
#	150
#	10697
#	21202
#	35972
#	51727
#	64390
#	75895
#	86587
#	102504
#	114615
#
# Disc length: 1712 seconds
#
# Revision: 0
# Processed by: cddbd v1.5.1PL0 Copyright (c) Steve Scherf et al.
# Submitted via: dBpowerAMP V4.0
#
DISCID=8306ae0a
DTITLE=Jerry Reed - All American Country
DYEAR=2003
DGENRE=Country
TTITLE0=Amos Moses
TTITLE1=When You're Hot, You're Hot
TTITLE2=She Got The Goldmine (I Got The Shaft)
TTITLE3=The Uptown Poker Club
TTITLE4=(I'm Just A) Redneck In A Rock And Roll Bar
TTITLE5=Ko-Ko Joe
TTITLE6=Sugar Foot Rag
TTITLE7=Down On The Corner
TTITLE8=Don't Think Twice It's All Right
TTITLE9=Early Morning Rain
EXTD=Michael McClung
EXTT0=
EXTT1=
EXTT2=
EXTT3=
EXTT4=
EXTT5=
EXTT6=
EXTT7=
EXTT8=
EXTT9=
PLAYORDER=
